<?xml version="1.0" encoding="UTF-8" standalone="no"?> <svg width="64" height="64" viewBox="0 0 64 64" fill="none" xmlns="http://www.w3.org/2000/svg">
<path d="M40.84 16.8101C42.3851 18.3544 44.4803 19.2219 46.665 19.2219C48.8496 19.2219 50.9448 18.3544 52.49 16.8101C53.563 15.7308 54.3161 14.3754 54.6659 12.8943C55.0157 11.4131 54.9484 9.86401 54.4715 8.41874C53.9947 6.97346 53.1269 5.68849 51.9644 4.70629C50.8019 3.72408 49.39 3.08302 47.8854 2.85418C46.3808 2.62535 44.8423 2.81767 43.4403 3.40984C42.0383 4.00201 40.8277 4.97088 39.9428 6.20903C39.0578 7.44718 38.533 8.90624 38.4266 10.4244C38.3202 11.9426 38.6363 13.4606 39.34 14.8101L25 25.4101C23.7318 24.1243 22.1159 23.2364 20.3506 22.8554C18.5852 22.4745 16.7471 22.6169 15.0614 23.2652C13.3758 23.9136 11.916 25.0397 10.861 26.5055C9.80599 27.9713 9.20161 29.7131 9.12195 31.5173C9.04229 33.3215 9.49083 35.1098 10.4126 36.6629C11.3343 38.216 12.6892 39.4663 14.3111 40.2607C15.933 41.0551 17.7515 41.3589 19.5435 41.135C21.3356 40.9111 23.0234 40.1691 24.4 39.0001L37.68 50.8001C36.7863 52.262 36.4712 54.005 36.7965 55.6873C37.1217 57.3695 38.0638 58.8695 39.438 59.893C40.8121 60.9164 42.5191 61.3894 44.2241 61.2192C45.929 61.049 47.5088 60.2478 48.6534 58.9729C49.7981 57.698 50.4251 56.0413 50.4113 54.328C50.3976 52.6146 49.7441 50.9683 48.579 49.7119C47.414 48.4556 45.8215 47.6799 44.1141 47.5371C42.4067 47.3943 40.7075 47.8947 39.35 48.9401L26.07 37.0901C27.0275 35.6732 27.5745 34.0191 27.6504 32.3107C27.7263 30.6023 27.3281 28.9062 26.5 27.4101L40.81 16.7801L40.84 16.8101Z" fill="black"/>
</svg>
