<?xml version="1.0" encoding="UTF-8" standalone="no"?> <svg xmlns="http://www.w3.org/2000/svg" viewBox="0 0 64 64"><g id="solid"><path d="M14,6a2,2,0,0,0-4,0V18h4Z"/><rect x="10" y="26" width="4" height="10"/><path d="M34.992,24.872,38.438,22l-3.446-2.872A1,1,0,0,1,34,20H6v4H34A1,1,0,0,1,34.992,24.872Z"/><path d="M48,38H31v1a1,1,0,0,1-1.641.768l-6-5a1,1,0,0,1,0-1.536l6-5A1,1,0,0,1,31,29v1H48V7a3,3,0,0,0-3-3H15.446A3.958,3.958,0,0,1,16,6V18H33V17a1,1,0,0,1,1.641-.768l6,5a1,1,0,0,1,0,1.536l-6,5A1,1,0,0,1,33,27V26H16V58a2,2,0,0,0,4,0V55a1,1,0,0,1,1-1H48ZM30,14H20V12H30Zm0-4H20V8H30ZM44,52H24V50H44Zm0-4H24V46H44Zm0-4H38V42h6Z"/><path d="M30,32a.977.977,0,0,1-.375-.076,1.147,1.147,0,0,1-.106-.064,1.007,1.007,0,0,1-.2-.136,1,1,0,0,1-.089-.114.962.962,0,0,1-.125-.184.886.886,0,0,1-.046-.146.87.87,0,0,1-.049-.152L25.562,34l3.446,2.872a.87.87,0,0,1,.049-.152.886.886,0,0,1,.046-.146.962.962,0,0,1,.125-.184,1,1,0,0,1,.089-.114,1.007,1.007,0,0,1,.2-.136,1.147,1.147,0,0,1,.106-.064A.977.977,0,0,1,30,36H58V32Z"/><path d="M51,56H22v2a3.97,3.97,0,0,1-.537,2H51a2,2,0,0,0,0-4Z"/></g></svg>